<svg width="48" height="45" viewBox="0 0 48 45" fill="none" xmlns="http://www.w3.org/2000/svg">
<path d="M0 0.364067V44.9378H47.5177V31.6771C47.6147 31.2736 47.6147 30.8549 47.5177 30.4513V0.30835H0V0.364067ZM5.93971 5.93578H41.578V28.2227H32.6684C32.4906 28.2076 32.3117 28.2076 32.1338 28.2227C31.3462 28.2892 30.619 28.6464 30.1121 29.2159C29.6053 29.7854 29.3604 30.5204 29.4313 31.2592C29.5022 31.9981 29.883 32.6803 30.4901 33.1557C31.0972 33.6311 31.8808 33.8609 32.6684 33.7944H41.578V39.3661H5.93971V5.93578ZM20.789 11.5075C15.859 11.5075 11.8794 15.2406 11.8794 19.8651C11.8794 25.4368 20.789 33.7944 20.789 33.7944C20.789 33.7944 29.6986 25.4368 29.6986 19.8651C29.6986 15.2406 25.719 11.5075 20.789 11.5075ZM20.789 17.0792C22.4521 17.0792 23.7588 18.305 23.7588 19.8651C23.7588 21.4252 22.4521 22.6509 20.789 22.6509C19.1259 22.6509 17.8191 21.4252 17.8191 19.8651C17.8191 18.305 19.1259 17.0792 20.789 17.0792Z" fill="black"/>
</svg>
